<?xml version="1.0" encoding="utf-8"?>
<!-- Generator: Adobe Illustrator 16.0.0, SVG Export Plug-In . SVG Version: 6.00 Build 0)  -->
<!DOCTYPE svg PUBLIC "-//W3C//DTD SVG 1.1//EN" "http://www.w3.org/Graphics/SVG/1.1/DTD/svg11.dtd">
<svg version="1.1" id="Layer_1" xmlns="http://www.w3.org/2000/svg" xmlns:xlink="http://www.w3.org/1999/xlink" x="0px" y="0px"
	 width="19px" height="114px" viewBox="0 0 19 114" enable-background="new 0 0 19 114" xml:space="preserve">
<g>
	<g>
		<polygon fill="#59595C" points="17.6,24.217 10.428,22.141 1.401,23.493 0,27.601 1.715,28.502 6.001,30.759 7.581,26.294 
			6.725,32.293 1.715,29.452 1.715,33.872 7.809,38.249 17.103,35.046 17.373,29.451 19,29.087 		"/>
		<polygon fill="#FFFFFF" points="2.051,23.663 10.567,22.491 16.562,24.173 10.849,23.331 		"/>
		<polygon fill="#FFFFFF" points="16.383,34.405 8.758,36.853 8.758,29.407 9.538,31.256 16.383,29.722 16.383,34.405 		"/>
		<polygon fill="#FFFFFF" points="9.929,30.196 8.758,26.743 16.922,25.119 17.961,28.468 		"/>
		<polygon fill="#FFFFFF" points="1.715,29.452 1.715,28.502 6.001,30.759 7.581,26.294 6.725,32.293 		"/>
	</g>
	<rect y="19" fill="none" width="19" height="19"/>
</g>
<g>
	<g>
		<polygon fill="#59595C" points="14.342,40.486 4.748,42.249 4.838,46.369 3.797,45.916 3.708,41.798 13.027,40.215 10.586,39.4 
			1.354,40.938 1.852,51.302 7.78,55.601 17.148,52.343 17.646,41.482 		"/>
		<polygon fill="#FFFFFF" points="16.424,51.663 8.685,54.289 8.685,54.288 8.685,44.333 16.74,42.747 		"/>
		<polygon fill="#FFFFFF" points="13.027,40.215 14.342,40.486 4.748,42.249 4.838,46.369 3.797,45.916 3.708,41.798 		"/>
	</g>
	<rect y="38" fill="none" width="19" height="19"/>
</g>
<g>
	<g>
		<g>
			<g>
				<path fill="#FFFFFF" d="M2.53,93.578V77.257c0,0-0.028-0.438,0.353-0.438c0.381,0,8.095,0,8.095,0s0.201-0.035,0.407,0.137
					s4.835,4.799,4.835,4.799s0.231,0.311,0.245,0.752c0.013,0.446,0,11.128,0,11.128s0.087,0.507-0.41,0.536
					c-0.499,0.029-13.035,0-13.035,0S2.53,94.259,2.53,93.578z"/>
				<path fill="#58595B" d="M12.453,94.501c-3.862,0-9.434-0.013-9.434-0.013c-0.399,0.034-0.806-0.235-0.806-0.91V77.257
					c-0.003-0.039-0.012-0.342,0.193-0.559c0.083-0.09,0.234-0.197,0.476-0.197h8.095c0.163-0.003,0.39,0.026,0.611,0.212
					c0.21,0.175,4.38,4.343,4.855,4.818c0.061,0.074,0.321,0.44,0.337,0.965c0.014,0.447,0.001,10.702,0.001,11.139l0,0
					c0.003,0,0.048,0.33-0.156,0.587c-0.088,0.11-0.257,0.249-0.552,0.266C16.017,94.49,15.843,94.501,12.453,94.501z M3.231,93.856
					c1.156,0,5.843,0.01,9.222,0.01c2.785,0,3.486-0.007,3.584-0.012c0.045-0.003,0.08-0.013,0.092-0.027
					c0.022-0.027,0.028-0.102,0.022-0.143c-0.004-0.157,0.009-10.731-0.004-11.168c-0.01-0.33-0.182-0.572-0.184-0.575
					c-1.81-1.804-4.613-4.596-4.783-4.742c-0.07-0.06-0.133-0.066-0.156-0.066l-8.142,0.004c-0.026,0.01-0.037,0.065-0.036,0.104
					l0,16.338c0,0.186,0.04,0.279,0.119,0.279C2.973,93.856,3.066,93.856,3.231,93.856z"/>
			</g>
			<g>
				<path fill="#58595B" d="M11.143,78.008c0.218,1.165,0.346,2.338,0.455,3.512v0.034c0.002-0.027,0.021,0.039,0.052,0.067
					c0.039,0.034,0.075,0.075,0.141,0.106c0.114,0.069,0.269,0.115,0.425,0.144c0.156,0.033,0.308,0.049,0.498,0.052l0.529,0.031
					c0.706,0.052,1.415,0.119,2.116,0.217l-0.004,0.131c-0.713,0.05-1.422,0.069-2.132,0.074l-0.531-0.007
					c-0.164,0.003-0.368-0.007-0.561-0.041c-0.189-0.026-0.384-0.071-0.578-0.178c-0.098-0.039-0.195-0.122-0.275-0.217
					c-0.08-0.108-0.154-0.202-0.159-0.409v0.033c-0.088-1.177-0.156-2.354-0.136-3.54L11.143,78.008z"/>
			</g>
		</g>
		<g>
			<path fill="#1B75BB" d="M6.616,90.276v0.912l-3.248-1.406v-0.781l3.248-1.409v0.921l-2.262,0.872L6.616,90.276z"/>
			<path fill="#1B75BB" d="M10.276,87.573l-0.902,3.724c-0.029,0.121-0.058,0.219-0.079,0.29c-0.023,0.071-0.058,0.125-0.104,0.166
				c-0.046,0.043-0.114,0.062-0.203,0.062c-0.218,0-0.328-0.094-0.328-0.285c0-0.05,0.022-0.173,0.065-0.37l0.899-3.724
				c0.049-0.2,0.094-0.336,0.136-0.41c0.044-0.072,0.126-0.108,0.253-0.108c0.106,0,0.189,0.023,0.244,0.075
				c0.059,0.052,0.086,0.124,0.086,0.214C10.345,87.275,10.322,87.397,10.276,87.573z"/>
			<path fill="#1B75BB" d="M15.632,89.782l-3.245,1.416v-0.915l2.269-0.892l-2.269-0.879v-0.905l3.245,1.4V89.782z"/>
		</g>
	</g>
	<rect y="76" fill="none" width="19" height="19"/>
</g>
<g>
	<g>
		<g>
			<g>
				<path fill="#FFFFFF" d="M2.53,112.578V96.257c0,0-0.028-0.438,0.352-0.438c0.382,0,8.095,0,8.095,0s0.201-0.035,0.407,0.137
					s4.835,4.799,4.835,4.799s0.23,0.311,0.244,0.752c0.014,0.446,0,11.128,0,11.128s0.088,0.506-0.409,0.536
					c-0.5,0.029-13.035,0-13.035,0S2.53,113.259,2.53,112.578z"/>
				<path fill="#58595B" d="M12.453,113.501c-3.862,0-9.434-0.013-9.434-0.013c-0.398-0.017-0.806-0.235-0.806-0.91V96.257
					c-0.003-0.038-0.011-0.342,0.193-0.559c0.083-0.09,0.235-0.197,0.476-0.197h8.095c0.163-0.006,0.39,0.026,0.611,0.212
					c0.21,0.175,4.38,4.343,4.855,4.818c0.061,0.074,0.32,0.44,0.337,0.966c0.013,0.446,0.001,10.701,0.001,11.138l0,0
					c0.003,0,0.047,0.33-0.156,0.587c-0.088,0.11-0.257,0.248-0.552,0.266C16.017,113.49,15.843,113.501,12.453,113.501z
					 M3.232,112.856c1.156,0,5.842,0.01,9.221,0.01c2.785,0,3.486-0.007,3.584-0.013c0.045-0.002,0.08-0.012,0.091-0.026
					c0.023-0.027,0.028-0.103,0.023-0.143c-0.004-0.157,0.009-10.731-0.004-11.168c-0.01-0.33-0.182-0.571-0.185-0.575
					c-1.809-1.804-4.612-4.596-4.782-4.742c-0.07-0.059-0.133-0.065-0.156-0.065l-8.142,0.003c-0.025,0.011-0.037,0.065-0.036,0.104
					l0,16.337c0,0.186,0.04,0.279,0.119,0.279C2.973,112.856,3.066,112.856,3.232,112.856z"/>
			</g>
			<g>
				<path fill="#58595B" d="M11.143,97.008c0.218,1.166,0.346,2.338,0.455,3.512v0.034c0.002-0.027,0.021,0.039,0.052,0.067
					c0.038,0.034,0.075,0.075,0.141,0.106c0.114,0.069,0.269,0.115,0.425,0.144c0.156,0.033,0.308,0.049,0.498,0.053l0.528,0.03
					c0.707,0.052,1.416,0.12,2.117,0.217l-0.005,0.131c-0.712,0.05-1.421,0.069-2.131,0.074l-0.531-0.007
					c-0.164,0.003-0.368-0.007-0.561-0.041c-0.189-0.026-0.384-0.071-0.578-0.178c-0.098-0.039-0.195-0.122-0.275-0.217
					c-0.08-0.108-0.154-0.202-0.159-0.409v0.034c-0.088-1.178-0.156-2.354-0.136-3.541L11.143,97.008z"/>
			</g>
		</g>
		<g>
			<path fill="#1B75BB" d="M5.514,108.914c0.153,0.093,0.272,0.199,0.359,0.315c0.085,0.119,0.146,0.266,0.181,0.449
				c0.033,0.182,0.051,0.414,0.051,0.699c0,0.211,0.004,0.366,0.015,0.468c0.01,0.102,0.029,0.178,0.059,0.23
				c0.031,0.055,0.064,0.088,0.107,0.106c0.04,0.016,0.111,0.029,0.209,0.045c0.083,0.012,0.148,0.053,0.203,0.121
				c0.055,0.071,0.081,0.158,0.081,0.271c0,0.264-0.16,0.392-0.476,0.392c-0.196,0-0.369-0.042-0.523-0.124
				c-0.154-0.08-0.273-0.196-0.358-0.347c-0.083-0.15-0.125-0.321-0.128-0.516c-0.007-0.326-0.013-0.591-0.02-0.786
				c-0.006-0.199-0.018-0.328-0.029-0.385c-0.032-0.146-0.081-0.254-0.145-0.327c-0.062-0.071-0.146-0.143-0.248-0.205
				c-0.102-0.063-0.174-0.12-0.218-0.17c-0.044-0.047-0.064-0.129-0.064-0.237c0-0.162,0.061-0.28,0.187-0.361
				c0.154-0.097,0.265-0.18,0.331-0.246c0.066-0.068,0.113-0.156,0.139-0.263c0.027-0.108,0.042-0.223,0.046-0.35
				c0.005-0.126,0.009-0.429,0.02-0.908c0.007-0.297,0.101-0.536,0.281-0.712c0.183-0.175,0.426-0.265,0.729-0.265
				c0.316,0,0.476,0.126,0.476,0.384c0,0.116-0.027,0.208-0.079,0.275c-0.053,0.067-0.121,0.104-0.206,0.115
				c-0.124,0.017-0.213,0.043-0.262,0.077c-0.048,0.035-0.082,0.103-0.097,0.201c-0.016,0.098-0.024,0.29-0.029,0.573
				c-0.004,0.278-0.021,0.506-0.05,0.684s-0.085,0.327-0.171,0.456C5.796,108.698,5.673,108.811,5.514,108.914z"/>
			<path fill="#1B75BB" d="M10.278,106.465l-0.901,3.724c-0.029,0.121-0.057,0.219-0.079,0.291
				c-0.023,0.072-0.059,0.124-0.104,0.165c-0.049,0.039-0.116,0.061-0.205,0.061c-0.219,0-0.328-0.095-0.328-0.283
				c0-0.051,0.022-0.175,0.065-0.371l0.898-3.722c0.049-0.198,0.093-0.334,0.136-0.409c0.042-0.071,0.126-0.11,0.253-0.11
				c0.106,0,0.189,0.024,0.244,0.078c0.06,0.051,0.088,0.123,0.088,0.212C10.345,106.167,10.324,106.289,10.278,106.465z"/>
			<path fill="#1B75BB" d="M13.488,108.914c-0.116-0.074-0.213-0.149-0.284-0.23c-0.072-0.079-0.133-0.174-0.18-0.288
				c-0.048-0.116-0.081-0.25-0.101-0.409c-0.02-0.154-0.028-0.34-0.028-0.55c0-0.207-0.005-0.36-0.013-0.468
				c-0.009-0.11-0.025-0.185-0.052-0.238c-0.023-0.05-0.062-0.082-0.108-0.103c-0.045-0.017-0.116-0.029-0.212-0.043
				c-0.077-0.012-0.146-0.051-0.202-0.115c-0.058-0.068-0.082-0.163-0.082-0.274c0-0.258,0.157-0.385,0.465-0.385
				c0.202,0,0.377,0.041,0.528,0.121c0.15,0.081,0.271,0.197,0.361,0.347c0.088,0.149,0.13,0.32,0.133,0.513
				c0.012,0.711,0.026,1.105,0.043,1.177c0.034,0.143,0.086,0.251,0.152,0.324c0.067,0.073,0.148,0.141,0.244,0.197
				c0.093,0.059,0.164,0.114,0.21,0.168c0.048,0.058,0.069,0.141,0.069,0.257c0,0.162-0.062,0.28-0.183,0.355
				c-0.151,0.092-0.262,0.174-0.328,0.244c-0.068,0.07-0.116,0.157-0.142,0.263c-0.026,0.104-0.042,0.262-0.05,0.468
				c-0.005,0.21-0.012,0.469-0.019,0.785c-0.007,0.296-0.102,0.533-0.285,0.715c-0.186,0.179-0.43,0.27-0.735,0.27
				c-0.149,0-0.267-0.033-0.349-0.101c-0.081-0.069-0.121-0.165-0.121-0.292c0-0.071,0.012-0.135,0.038-0.194
				c0.025-0.059,0.062-0.104,0.103-0.138c0.04-0.032,0.09-0.052,0.145-0.059c0.097-0.015,0.169-0.028,0.217-0.048
				c0.047-0.021,0.084-0.057,0.108-0.113c0.025-0.053,0.041-0.131,0.05-0.235c0.008-0.107,0.012-0.259,0.012-0.458
				c0.004-0.299,0.022-0.531,0.052-0.699c0.028-0.169,0.086-0.313,0.17-0.435C13.201,109.127,13.325,109.016,13.488,108.914z"/>
		</g>
	</g>
	<rect y="95" fill="none" width="19" height="19"/>
</g>
<g>
	<path fill="none" stroke="#4B837A" stroke-width="0.446" stroke-miterlimit="10" d="M3.674,63.357h5.679
		c0,0,0.204,0.02,0.363-0.228c0.159-0.248,0.499-1.078,0.499-1.078s0.081-0.151,0.271-0.157c0.193-0.002,4.707,0.065,4.707,0.065
		s0.32-0.082,0.408,0.53c0.086,0.609,0.217,1.139,0.293,2.933c0.071,1.794,0,3.874,0,3.874l-0.027,1.309
		c0,0-0.018,0.303-0.223,0.438c-0.205,0.137-12.409,0-12.409,0s-0.158,0.064-0.158-0.273c0-0.344-0.01-2.086,0-3.029
		c0.009-0.941,0.055-3.903,0.055-3.903S3.121,63.357,3.674,63.357z"/>
	<g>
		<path fill="#FFFFFF" d="M1.93,62.417h7.379c0,0,0.265,0.025,0.471-0.296c0.207-0.322,0.648-1.4,0.648-1.4s0.105-0.197,0.353-0.205
			c0.252-0.002,6.116,0.085,6.116,0.085s0.417-0.106,0.531,0.689c0.111,0.792,0.281,1.479,0.38,3.811c0.093,2.331,0,5.034,0,5.034
			l-0.035,1.7c0,0-0.022,0.394-0.289,0.568c-0.267,0.178-16.124,0-16.124,0s-0.205,0.084-0.205-0.355c0-0.446-0.013-2.71,0-3.936
			c0.012-1.224,0.071-5.072,0.071-5.072S1.211,62.417,1.93,62.417z"/>
		<path fill="#59595C" d="M13.185,73.132c-4.436,0-10.83-0.067-11.726-0.077L1.322,73.06c-0.303,0-0.817-0.213-0.817-1.012
			l-0.002-0.561c-0.002-0.874-0.008-2.437,0.002-3.383c0.011-1.224,0.071-5.075,0.071-5.075c-0.002-0.062,0.005-0.516,0.358-0.878
			c0.172-0.175,0.483-0.384,0.996-0.384h7.379c0.045-0.185,0.344-0.868,0.518-1.294c0.16-0.304,0.475-0.594,0.935-0.607
			c0.396,0.034,5.44,0.075,6.079,0.084l0.106-0.004c0.157,0,0.953,0.061,1.124,1.251l0.065,0.429
			c0.106,0.672,0.239,1.508,0.322,3.446c0.093,2.33,0,5.058,0,5.085l-0.036,1.691c-0.007,0.144-0.068,0.761-0.582,1.098
			C17.628,73.089,17.562,73.132,13.185,73.132z M1.805,71.759c1.607,0.017,7.316,0.073,11.38,0.073c2.57,0,3.562-0.022,3.94-0.042
			l0.034-1.67c0.001-0.035,0.092-2.715,0-4.994c-0.078-1.861-0.204-2.657-0.306-3.297l-0.068-0.449
			c-0.008-0.057-0.018-0.102-0.026-0.136c-0.923-0.01-4.94-0.068-5.816-0.077c-0.115,0.287-0.425,1.009-0.615,1.306
			c-0.354,0.552-0.858,0.594-1.004,0.594H1.93c0,0,0,0-0.001,0c-0.053,0-0.112,3.832-0.124,5.052
			c-0.01,0.941-0.004,2.495-0.002,3.364L1.805,71.759z"/>
	</g>
	<rect y="57" fill="none" width="19" height="19"/>
</g>
<g>
	<g>
		<g>
			<rect x="2.395" y="1.062" fill="#FFFFFF" width="14.211" height="5.329"/>
			<path fill="#59595C" d="M16.605,6.954H2.395c-0.311,0-0.562-0.252-0.562-0.562V1.062c0-0.311,0.252-0.562,0.562-0.562h14.211
				c0.311,0,0.562,0.251,0.562,0.562v5.329C17.168,6.702,16.916,6.954,16.605,6.954z M2.957,5.829h13.086V1.625H2.957V5.829z"/>
		</g>
		<g>
			<rect x="2.395" y="6.392" fill="#FFFFFF" width="14.211" height="5.328"/>
			<path fill="#59595C" d="M16.605,12.282H2.395c-0.311,0-0.562-0.251-0.562-0.562V6.392c0-0.311,0.252-0.562,0.562-0.562h14.211
				c0.311,0,0.562,0.251,0.562,0.562v5.328C17.168,12.031,16.916,12.282,16.605,12.282z M2.957,11.157h13.086V6.954H2.957V11.157z"
				/>
		</g>
		<g>
			<rect x="2.395" y="11.72" fill="#FFFFFF" width="14.211" height="5.329"/>
			<path fill="#59595C" d="M16.605,17.611H2.395c-0.311,0-0.562-0.251-0.562-0.562V11.72c0-0.311,0.252-0.562,0.562-0.562h14.211
				c0.311,0,0.562,0.252,0.562,0.562v5.329C17.168,17.36,16.916,17.611,16.605,17.611z M2.957,16.486h13.086v-4.204H2.957V16.486z"
				/>
		</g>
		<g>
			<path fill="#59595C" d="M2.867,18.5c-0.311,0-0.562-0.251-0.562-0.562v-0.889c0-0.311,0.251-0.562,0.562-0.562
				c0.311,0,0.562,0.251,0.562,0.562v0.889C3.43,18.249,3.178,18.5,2.867,18.5z"/>
		</g>
		<g>
			<path fill="#59595C" d="M16.131,18.5c-0.312,0-0.562-0.251-0.562-0.562v-0.889c0-0.311,0.251-0.562,0.562-0.562
				c0.311,0,0.562,0.251,0.562,0.562v0.889C16.693,18.249,16.441,18.5,16.131,18.5z"/>
		</g>
		<g>
			<path fill="#59595C" d="M14.818,5.632c-0.232,0-0.422-0.189-0.422-0.422V2.305c0-0.233,0.189-0.422,0.422-0.422
				s0.422,0.188,0.422,0.422V5.21C15.24,5.443,15.051,5.632,14.818,5.632z"/>
		</g>
		<g>
			<path fill="#59595C" d="M13.672,5.632c-0.233,0-0.422-0.189-0.422-0.422V2.305c0-0.233,0.188-0.422,0.422-0.422
				c0.232,0,0.422,0.188,0.422,0.422V5.21C14.094,5.443,13.904,5.632,13.672,5.632z"/>
		</g>
		<g>
			<path fill="#59595C" d="M12.406,5.632c-0.233,0-0.422-0.189-0.422-0.422V2.305c0-0.233,0.188-0.422,0.422-0.422
				c0.232,0,0.422,0.188,0.422,0.422V5.21C12.828,5.443,12.639,5.632,12.406,5.632z"/>
		</g>
		<g>
			<path fill="#59595C" d="M6.78,10.976H3.873c-0.232,0-0.422-0.189-0.422-0.422s0.189-0.422,0.422-0.422H6.78
				c0.233,0,0.422,0.189,0.422,0.422S7.013,10.976,6.78,10.976z"/>
		</g>
		<g>
			<path fill="#59595C" d="M6.78,9.922H3.873c-0.232,0-0.422-0.189-0.422-0.422S3.64,9.078,3.873,9.078H6.78
				c0.233,0,0.422,0.189,0.422,0.422S7.013,9.922,6.78,9.922z"/>
		</g>
		<g>
			<path fill="#59595C" d="M6.78,8.867H3.873c-0.232,0-0.422-0.189-0.422-0.422S3.64,8.023,3.873,8.023H6.78
				c0.233,0,0.422,0.189,0.422,0.422S7.013,8.867,6.78,8.867z"/>
		</g>
		<g>
			<path fill="#59595C" d="M10.172,5.632c-0.057,0-0.112-0.011-0.167-0.034C9.791,5.506,9.692,5.259,9.784,5.044l1.142-2.672
				c0.092-0.215,0.341-0.313,0.554-0.222c0.214,0.092,0.313,0.34,0.223,0.554L10.56,5.376C10.491,5.536,10.335,5.632,10.172,5.632z"
				/>
		</g>
		<g>
			<path fill="#59595C" d="M4.209,16.38c-0.233,0-0.422-0.188-0.422-0.422v-2.905c0-0.233,0.189-0.422,0.422-0.422
				s0.422,0.188,0.422,0.422v2.905C4.631,16.191,4.442,16.38,4.209,16.38z"/>
		</g>
		<g>
			<path fill="#59595C" d="M6.444,16.38c-0.164,0-0.32-0.096-0.388-0.256l-1.142-2.672c-0.092-0.214,0.007-0.462,0.222-0.554
				c0.214-0.091,0.462,0.008,0.554,0.222l1.142,2.672c0.092,0.214-0.008,0.462-0.222,0.554C6.555,16.369,6.499,16.38,6.444,16.38z"
				/>
		</g>
	</g>
	<rect fill="none" width="19" height="19"/>
</g>
</svg>
