<?xml version="1.0" encoding="utf-8"?>
<!-- Generator: Adobe Illustrator 16.0.0, SVG Export Plug-In . SVG Version: 6.00 Build 0)  -->
<!DOCTYPE svg PUBLIC "-//W3C//DTD SVG 1.1//EN" "http://www.w3.org/Graphics/SVG/1.1/DTD/svg11.dtd">
<svg version="1.1" id="Layer_1" xmlns="http://www.w3.org/2000/svg" xmlns:xlink="http://www.w3.org/1999/xlink" x="0px" y="0px"
	 width="50px" height="50px" viewBox="0 0 50 50" enable-background="new 0 0 50 50" xml:space="preserve">
<g>
	<g>
		<path fill="#5A5A5D" d="M47.221,24.324L35.736,12.839c-0.357-0.357-0.989-0.357-1.346,0l-2.49,2.49
			c-0.372,0.372-0.372,0.975,0,1.347l8.322,8.321L31.9,33.32c-0.372,0.371-0.372,0.975,0,1.346l2.49,2.49
			c0.179,0.179,0.421,0.279,0.673,0.279s0.495-0.101,0.674-0.279l11.483-11.484C47.593,25.299,47.593,24.696,47.221,24.324z"/>
		<path fill="#5A5A5D" d="M18.099,33.32l-8.32-8.322l8.322-8.321c0.179-0.178,0.279-0.42,0.279-0.673c0-0.252-0.1-0.495-0.279-0.673
			l-2.49-2.49c-0.179-0.179-0.421-0.279-0.673-0.279c-0.252,0-0.495,0.1-0.673,0.279L2.779,24.324c-0.372,0.372-0.372,0.975,0,1.347
			l11.485,11.484c0.179,0.179,0.421,0.28,0.673,0.28c0.252,0,0.495-0.102,0.673-0.28l2.49-2.489
			C18.472,34.295,18.472,33.691,18.099,33.32z"/>
		<path fill="#5A5A5D" d="M31.53,8.976c-0.121-0.222-0.324-0.387-0.566-0.458l-2.019-0.595c-0.503-0.15-1.034,0.139-1.183,0.644
			L18.393,40.3c-0.072,0.242-0.044,0.502,0.077,0.724c0.12,0.223,0.325,0.387,0.566,0.459l2.019,0.596
			c0.09,0.026,0.181,0.039,0.27,0.039c0.411,0,0.791-0.269,0.913-0.683L31.607,9.7C31.679,9.458,31.651,9.197,31.53,8.976z"/>
	</g>
</g>
</svg>
