<?xml version="1.0" encoding="utf-8"?>
<!-- Generator: Adobe Illustrator 16.0.0, SVG Export Plug-In . SVG Version: 6.00 Build 0)  -->
<!DOCTYPE svg PUBLIC "-//W3C//DTD SVG 1.1//EN" "http://www.w3.org/Graphics/SVG/1.1/DTD/svg11.dtd">
<svg version="1.1" id="Layer_1" xmlns="http://www.w3.org/2000/svg" xmlns:xlink="http://www.w3.org/1999/xlink" x="0px" y="0px"
	 width="50px" height="500px" viewBox="0 0 50 500" enable-background="new 0 0 50 500" xml:space="preserve">
<g>
	<path id="Facebook" fill="#FFFFFF" d="M21.688,17.342c0,0.63,0,3.441,0,3.441h-2.521v4.209h2.521V37.5h5.18V24.994h3.478
		c0,0,0.326-2.019,0.483-4.226c-0.453,0-3.94,0-3.94,0s0-2.448,0-2.877c0-0.43,0.565-1.008,1.123-1.008s1.733,0,2.823,0
		c0-0.573,0-2.552,0-4.382c-1.454,0-3.107,0-3.837,0C21.561,12.5,21.688,16.713,21.688,17.342z"/>
</g>
<path fill="#FFFFFF" d="M29.751,136.312v-4.388c0-1.344-0.361-2.331-1.082-2.954c0.791-0.083,1.501-0.208,2.133-0.375
	c0.631-0.166,1.282-0.436,1.955-0.813c0.676-0.372,1.234-0.835,1.685-1.382c0.45-0.546,0.817-1.273,1.103-2.182
	c0.282-0.91,0.425-1.954,0.425-3.131c0-1.679-0.547-3.107-1.643-4.285c0.513-1.264,0.458-2.676-0.166-4.244
	c-0.389-0.124-0.95-0.049-1.685,0.228c-0.735,0.277-1.371,0.582-1.914,0.916l-0.789,0.5c-1.291-0.362-2.622-0.538-3.994-0.538
	c-1.372,0-2.703,0.179-3.992,0.538c-0.223-0.153-0.518-0.339-0.885-0.562c-0.367-0.223-0.947-0.49-1.737-0.803
	c-0.79-0.311-1.387-0.403-1.788-0.28c-0.61,1.568-0.659,2.98-0.147,4.244c-1.095,1.178-1.643,2.606-1.643,4.285
	c0,1.177,0.143,2.217,0.427,3.119c0.284,0.901,0.648,1.628,1.091,2.184c0.444,0.554,1.003,1.021,1.675,1.393
	c0.672,0.375,1.324,0.643,1.955,0.813c0.632,0.167,1.342,0.293,2.133,0.374c-0.555,0.5-0.894,1.213-1.02,2.143
	c-0.292,0.138-0.603,0.242-0.936,0.313c-0.333,0.068-0.729,0.103-1.185,0.103c-0.457,0-0.911-0.151-1.362-0.447
	c-0.451-0.297-0.835-0.731-1.155-1.302c-0.263-0.441-0.599-0.804-1.008-1.081c-0.409-0.278-0.752-0.444-1.03-0.5l-0.416-0.061
	c-0.292,0-0.493,0.03-0.604,0.092c-0.111,0.062-0.146,0.143-0.104,0.239c0.042,0.097,0.104,0.193,0.188,0.291
	c0.083,0.097,0.173,0.181,0.27,0.251l0.146,0.104c0.305,0.138,0.607,0.401,0.905,0.789c0.298,0.389,0.517,0.743,0.655,1.061
	l0.208,0.478c0.18,0.526,0.485,0.953,0.915,1.277c0.43,0.327,0.895,0.535,1.394,0.625c0.5,0.088,0.981,0.138,1.445,0.146
	c0.466,0.006,0.85-0.018,1.154-0.073l0.479-0.083c0,0.527,0.003,1.144,0.012,1.853c0.006,0.708,0.01,1.082,0.01,1.125
	c0,0.249-0.09,0.457-0.27,0.621c0,0.002,0,0.002,0,0.002c1.345,0.367,2.761,0.567,4.222,0.567c1.466,0,2.884-0.198,4.233-0.569
	C29.837,136.769,29.751,136.562,29.751,136.312z"/>
<g>
	<path id="Shape" fill="#FFFFFF" d="M25.248,73.214v4.287h7.093c-0.287,1.837-2.147,5.393-7.093,5.393
		c-4.269,0-7.75-3.537-7.75-7.893c0-4.356,3.48-7.893,7.75-7.893c2.429,0,4.056,1.036,4.983,1.928l3.392-3.269
		c-2.176-2.036-4.997-3.268-8.375-3.268c-6.91,0.002-12.499,5.592-12.499,12.501S18.338,87.5,25.248,87.5
		c7.216,0,12.003-5.072,12.003-12.214c0-0.821-0.091-1.447-0.198-2.072H25.248L25.248,73.214z"/>
</g>
<g>
	<g>
		<path fill="#FFFFFF" d="M37.5,167.249c-0.919,0.408-1.907,0.685-2.944,0.809c1.059-0.634,1.87-1.641,2.255-2.835
			c-0.993,0.587-2.091,1.013-3.259,1.245c-0.936-0.999-2.268-1.621-3.743-1.621c-2.831,0-5.128,2.297-5.128,5.127
			c0,0.402,0.045,0.793,0.133,1.168c-4.262-0.214-8.041-2.256-10.571-5.358c-0.442,0.757-0.694,1.638-0.694,2.578
			c0,1.78,0.906,3.35,2.281,4.269c-0.841-0.028-1.631-0.259-2.324-0.644v0.064c0,2.483,1.769,4.557,4.114,5.029
			c-0.43,0.116-0.883,0.179-1.352,0.179c-0.331,0-0.65-0.033-0.965-0.095c0.652,2.039,2.546,3.521,4.79,3.562
			c-1.754,1.375-3.967,2.191-6.37,2.191c-0.414,0-0.821-0.025-1.223-0.07c2.27,1.458,4.965,2.308,7.862,2.308
			c9.434,0,14.591-7.814,14.591-14.592l-0.017-0.663C35.942,169.18,36.815,168.277,37.5,167.249z"/>
	</g>
</g>
<g>
	<path id="LinkedIn" fill="#FFFFFF" d="M37.5,227.702v9.243h-5.358v-8.625c0-2.167-0.776-3.645-2.715-3.645
		c-1.479,0-2.361,0.996-2.749,1.96c-0.143,0.345-0.18,0.825-0.18,1.307v9.002h-5.359c0,0,0.071-14.605,0-16.119H26.5v2.285
		c-0.012,0.017-0.025,0.035-0.036,0.052H26.5v-0.052c0.712-1.097,1.983-2.664,4.83-2.664C34.855,220.447,37.5,222.75,37.5,227.702z
		 M15.534,213.056c-1.833,0-3.034,1.203-3.034,2.784c0,1.548,1.164,2.787,2.962,2.787h0.036c1.869,0,3.032-1.239,3.032-2.787
		C18.494,214.258,17.367,213.056,15.534,213.056z M12.818,236.944h5.358v-16.119h-5.358V236.944z"/>
</g>
<g>
	<path fill="#FFFFFF" d="M12.509,274.167L12.5,266.04l10-1.358v9.485H12.509z M24.167,264.439l13.331-1.939v11.667H24.167V264.439z
		 M37.5,275.833L37.497,287.5l-13.331-1.875v-9.792H37.5z M22.5,285.412l-9.992-1.369v-8.211H22.5V285.412z"/>
</g>
</svg>
