<?xml version="1.0" encoding="utf-8"?>
<!-- Generator: Adobe Illustrator 15.1.0, SVG Export Plug-In . SVG Version: 6.00 Build 0)  -->
<!DOCTYPE svg PUBLIC "-//W3C//DTD SVG 1.1//EN" "http://www.w3.org/Graphics/SVG/1.1/DTD/svg11.dtd">
<svg version="1.1" id="Layer_1" xmlns="http://www.w3.org/2000/svg" xmlns:xlink="http://www.w3.org/1999/xlink" x="0px" y="0px"
	 width="32px" height="192px" viewBox="0 0 32 192" enable-background="new 0 0 32 192" xml:space="preserve">
<g>
	<path fill="#5CC3BD" stroke="#4B837A" stroke-width="0.8676" stroke-miterlimit="10" d="M4.666,9.884h11.047
		c0,0,0.397,0.042,0.707-0.438c0.309-0.481,0.971-2.099,0.971-2.099s0.155-0.292,0.527-0.301c0.373-0.008,9.159,0.125,9.159,0.125
		s0.616-0.158,0.787,1.028c0.169,1.188,0.425,2.217,0.571,5.708c0.145,3.488,0,7.535,0,7.535l-0.051,2.544
		c0,0-0.037,0.587-0.436,0.851c-0.4,0.264-24.134,0-24.134,0s-0.31,0.127-0.31-0.537c0-0.664-0.019-4.053,0-5.888
		s0.109-7.596,0.109-7.596S3.592,9.884,4.666,9.884z"/>
	<rect fill="none" width="32" height="32"/>
</g>
<g>
	<g>
		<path fill="#FFFFFF" stroke="#58595B" stroke-width="0.9132" stroke-miterlimit="10" d="M5.966,91.626V68.135
			c0,0-0.041-0.631,0.507-0.631c0.549,0,11.653,0,11.653,0s0.289-0.051,0.586,0.197c0.296,0.248,6.961,6.906,6.961,6.906
			s0.331,0.444,0.353,1.084c0.021,0.643,0,16.018,0,16.018s0.125,0.73-0.592,0.771c-0.718,0.041-18.765,0-18.765,0
			S5.966,92.605,5.966,91.626z"/>
		<g>
			<path fill="#58595B" d="M18.364,69.214c0.311,1.679,0.503,3.365,0.659,5.056v0.051c0-0.043,0.023,0.057,0.068,0.095
				c0.057,0.047,0.107,0.11,0.202,0.151c0.161,0.098,0.388,0.16,0.612,0.199l0.333,0.053l0.381,0.023l0.763,0.049
				c1.018,0.084,2.033,0.166,3.047,0.315l-0.01,0.188c-1.023,0.082-2.044,0.094-3.064,0.107L20.592,75.5l-0.382-0.002
				c-0.164-0.014-0.28-0.036-0.424-0.055c-0.272-0.043-0.556-0.105-0.835-0.262c-0.141-0.061-0.279-0.182-0.398-0.312
				c-0.115-0.157-0.222-0.292-0.229-0.593v0.051c-0.126-1.693-0.217-3.389-0.189-5.096L18.364,69.214z"/>
		</g>
		<polygon fill="#3E5C2B" points="7.559,88.352 24.443,88.352 19.945,82.236 16.486,85.445 12.492,79.279 		"/>
		<circle fill="#3E5C2B" cx="10.109" cy="76.842" r="1.68"/>
	</g>
	<rect y="64" fill="none" width="32" height="32"/>
</g>
<g>
	<g>
		<path fill="#FFFFFF" stroke="#58595B" stroke-width="0.9132" stroke-miterlimit="10" d="M5.966,123.626v-23.491
			c0,0-0.041-0.631,0.507-0.631c0.549,0,11.653,0,11.653,0s0.289-0.051,0.586,0.197c0.296,0.248,6.961,6.906,6.961,6.906
			s0.331,0.444,0.353,1.084c0.021,0.643,0,16.019,0,16.019s0.125,0.729-0.592,0.771c-0.718,0.041-18.765,0-18.765,0
			S5.966,124.604,5.966,123.626z"/>
		<g>
			<path fill="#58595B" d="M18.364,101.214c0.311,1.679,0.503,3.365,0.659,5.056v0.051c0-0.043,0.023,0.057,0.068,0.095
				c0.057,0.047,0.107,0.11,0.202,0.151c0.161,0.098,0.388,0.16,0.612,0.199l0.333,0.053l0.381,0.023l0.763,0.049
				c1.018,0.084,2.033,0.166,3.047,0.315l-0.01,0.188c-1.023,0.082-2.044,0.094-3.064,0.107l-0.764-0.002l-0.382-0.002
				c-0.164-0.014-0.28-0.036-0.424-0.055c-0.272-0.043-0.556-0.105-0.835-0.262c-0.141-0.061-0.279-0.182-0.398-0.312
				c-0.115-0.157-0.222-0.292-0.229-0.593v0.051c-0.126-1.693-0.217-3.389-0.189-5.096L18.364,101.214z"/>
		</g>
		<path fill="#BF6692" d="M22.191,109.57c0.009-0.963-0.844-1.057-0.844-1.057s-7.774-0.246-8.447-0.408
			c-0.674-0.166-0.702,0.361-0.702,0.361v6.963v0.123l0.011,0.018c-0.436-0.211-0.919-0.34-1.436-0.34
			c-1.83,0-3.313,1.483-3.313,3.313c0,1.831,1.483,3.313,3.313,3.313s3.313-1.482,3.313-3.313v-3.077v-3.773
			c0,0-0.01-0.316,0.337-0.262c0.346,0.059,5.496,0.086,5.496,0.086s0.23-0.018,0.256,0.23c0.023,0.249,0,4.428,0,4.428v0.534
			l0.018,0.017c-0.059-0.004-0.112-0.017-0.17-0.017c-1.265,0-2.287,1.022-2.287,2.288c0,1.264,1.022,2.287,2.287,2.287
			s2.289-1.023,2.289-2.287v-2.859C22.258,113.669,22.186,110.184,22.191,109.57z"/>
	</g>
	<rect y="96" fill="none" width="32" height="32"/>
</g>
<g>
	<g>
		<path fill="#FFFFFF" stroke="#58595B" stroke-width="0.9132" stroke-miterlimit="10" d="M5.966,187.626v-23.49
			c0,0-0.042-0.632,0.507-0.632s11.653,0,11.653,0s0.289-0.051,0.586,0.196c0.297,0.249,6.962,6.907,6.962,6.907
			s0.33,0.444,0.352,1.084c0.021,0.643,0,16.018,0,16.018s0.125,0.73-0.592,0.773c-0.718,0.039-18.765,0-18.765,0
			S5.966,188.605,5.966,187.626z"/>
		<g>
			<path d="M6.527,177.895v-0.017c-0.045,0.004-0.09,0.009-0.131,0.013c-0.002,1.455-0.006,2.906-0.008,4.36
				c0.019-0.002,0.035-0.003,0.057-0.001c0.027,0.002,0.055,0.009,0.082,0.014v-0.005c7.212-0.094,13.77,0.47,19.09,2.273v-2.148
				c-0.223-0.174-0.139,0.376-0.443,0.316c-0.193-0.183,0.128-0.499-0.126-0.57c-0.409-0.112-0.188,0.399-0.567,0.315
				c-0.055-0.276,0.135-0.428-0.062-0.504c-0.075-0.01-0.183,0.011-0.19-0.064c-0.254-0.003-0.074,0.434-0.379,0.382
				c-0.226-0.135,0.182-0.61-0.188-0.508c-0.245-0.242-0.181,0.364-0.442,0.315c-0.187-0.172,0.098-0.527-0.128-0.566
				c-0.396-0.199-0.212,0.314-0.567,0.314c-0.227-0.125,0.19-0.5-0.127-0.506c-0.037-0.002-0.074-0.012-0.062-0.063
				c-0.355-0.06-0.107,0.481-0.506,0.38c-0.062-0.288,0.165-0.473-0.062-0.568c-0.412-0.117-0.168,0.422-0.507,0.379
				c-0.196-0.218,0.165-0.612-0.254-0.566c-0.229-0.188-0.067,0.441-0.44,0.314c-0.053-0.16,0.123-0.545-0.127-0.508
				c-0.088,0.84-1.144,0.711-2.086,0.695c0.01-0.157-0.1-0.195-0.125-0.314c-0.771-0.02-2.314,0.226-3.162-0.062
				c-0.062-0.192,0.136-0.641-0.127-0.635c-0.358-0.062-0.062,0.527-0.44,0.441c-0.157-0.072,0.086-0.548-0.254-0.441
				c-0.275-0.021-0.002,0.508-0.316,0.441c-0.274,0.023,0.056-0.56-0.315-0.441c-0.291-0.035,0.039,0.545-0.314,0.441
				c-0.248-0.004,0.035-0.539-0.316-0.441c-0.283-0.051,0.014,0.479-0.252,0.441c-0.297,0.023-0.033-0.515-0.381-0.441
				c-0.125,0.131-0.02,0.488-0.314,0.441c-0.158-0.072,0.086-0.548-0.254-0.441c-0.254,0.021-0.031,0.518-0.379,0.441
				c-0.155-0.072,0.086-0.548-0.252-0.441c-0.275-0.021,0,0.508-0.315,0.441c-0.274,0.023,0.056-0.56-0.315-0.441
				c-0.291-0.035,0.037,0.545-0.316,0.441c-0.248-0.004,0.035-0.539-0.316-0.441c-0.283-0.051,0.014,0.479-0.253,0.441
				c-0.272,0.021-0.067-0.438-0.315-0.441c-0.254,0.021-0.031,0.518-0.379,0.441c-0.156-0.072,0.086-0.548-0.252-0.441
				c-0.256,0.021-0.031,0.518-0.379,0.441c-0.156-0.072,0.084-0.548-0.254-0.441c-0.277-0.021-0.002,0.508-0.314,0.441
				c-0.275,0.023,0.054-0.56-0.316-0.441c-0.292-0.035,0.037,0.545-0.316,0.441c-0.246-0.004,0.037-0.539-0.316-0.441
				c-0.282-0.051,0.016,0.479-0.252,0.441c-0.014-0.561-0.016-1.107,0.316-1.324c0.273-0.021-0.056,0.562,0.315,0.441
				c0.29,0.039-0.039-0.542,0.315-0.441c0.248,0.004-0.035,0.541,0.315,0.441c0.292,0.039-0.036-0.542,0.316-0.441
				c0.245,0.004-0.036,0.541,0.315,0.441c0.283,0.051-0.015-0.479,0.252-0.441c0.297-0.021,0.031,0.517,0.379,0.441
				c0.285,0.051-0.014-0.479,0.254-0.441c0.295-0.021,0.031,0.517,0.379,0.441c0.152-0.08-0.022-0.486,0.252-0.441
				c0.275-0.021-0.055,0.562,0.316,0.441c0.293,0.039-0.037-0.542,0.316-0.441c0.246,0.004-0.036,0.541,0.316,0.441
				c0.291,0.039-0.039-0.542,0.313-0.441c0.248,0.004-0.034,0.541,0.315,0.441c0.285,0.051-0.012-0.479,0.254-0.441
				c0.298-0.021,0.033,0.517,0.38,0.441c0.282,0.051-0.015-0.479,0.252-0.441c0.296-0.021,0.032,0.517,0.378,0.441
				c0.152-0.08-0.021-0.486,0.253-0.441c0.274-0.021-0.056,0.562,0.315,0.441c0.291,0.039-0.037-0.542,0.316-0.441
				c0.247,0.004-0.035,0.541,0.316,0.441c0.291,0.039-0.039-0.542,0.314-0.441c0.248,0.004-0.035,0.541,0.315,0.441
				c0.264,0.051,0.034-0.391,0.19-0.441c0.172-0.047,0.127,0.125,0.252,0.127c0.027-0.205-0.082-0.549,0.127-0.566
				c1.068-0.04,2.019,0.045,2.971,0.126c0.191,0,0.062-0.317,0.253-0.315c0.587,0.032,1.147-0.062,1.581,0
				c0.102,0.041,0.148,0.135,0.215,0.211c0.07,0.082,0.16,0.145,0.354,0.104c0.035,0.174-0.006,0.426,0.252,0.377
				c0.396-0.021-0.02-0.466,0.188-0.631c0.379-0.05,0.185,0.618,0.57,0.377c0.22-0.103-0.171-0.45,0.062-0.565
				c0.381-0.066,0.11,0.521,0.569,0.379c0.241-0.022-0.083-0.422,0.127-0.57c0.327-0.051,0.097,0.453,0.44,0.382
				c0.016-0.05,0.054-0.073,0.127-0.063c0.191-0.074-0.168-0.453,0.062-0.568c0.339-0.008,0.161,0.644,0.568,0.38
				c0.18-0.083-0.186-0.521,0.127-0.567c0.254,0.039,0.1,0.489,0.505,0.379c0.291-0.07-0.086-0.418,0.127-0.568
				c0.366-0.053,0.167,0.584,0.567,0.314c0.209-0.113-0.19-0.515,0.125-0.566c0.322-0.049,0.082,0.469,0.442,0.379
				c0.197-0.432,0.205-1.326,0.191-2.148C20.26,177.512,13.507,178.091,6.527,177.895z"/>
			<path d="M16.006,179.538c-0.072,0.076-0.07,0.224-0.062,0.38c-0.084,0-0.168,0-0.252,0c-0.034-0.093,0.074-0.326-0.063-0.314
				C15.637,179.463,15.896,179.576,16.006,179.538z"/>
			<path d="M15.628,180.359c0,0.084,0,0.17,0,0.254c-0.147-0.021-0.295-0.04-0.253-0.254
				C15.46,180.359,15.544,180.359,15.628,180.359z"/>
			<path d="M15.564,180.93c-0.026,0.141-0.312,0.025-0.442,0.062c0-0.084,0-0.169,0-0.252
				C15.281,180.793,15.371,180.915,15.564,180.93z"/>
			<path fill="none" stroke="#000000" stroke-width="0.1631" stroke-miterlimit="10" d="M20.32,178.962
				c0.481,0.913,0.268,1.75,0.031,2.172"/>
		</g>
		<g>
			<path fill="#58595B" d="M18.823,165.214c0.311,1.679,0.502,3.365,0.657,5.056l0.002,0.051c0-0.041,0.022,0.058,0.068,0.096
				c0.057,0.047,0.106,0.109,0.202,0.15c0.161,0.098,0.388,0.16,0.611,0.199l0.333,0.053l0.382,0.023l0.763,0.049
				c1.018,0.084,2.033,0.166,3.049,0.315l-0.011,0.188c-1.022,0.082-2.045,0.094-3.063,0.107L21.05,171.5l-0.383-0.002
				c-0.163-0.014-0.281-0.036-0.423-0.055c-0.273-0.043-0.557-0.105-0.836-0.262c-0.141-0.062-0.279-0.182-0.398-0.312
				c-0.115-0.157-0.221-0.292-0.229-0.594l0.001,0.052c-0.126-1.693-0.218-3.39-0.188-5.095L18.823,165.214z"/>
		</g>
	</g>
	<rect y="160" fill="none" width="32" height="32"/>
</g>
<g>
	<g>
		<path fill="#FFFFFF" stroke="#58595B" stroke-width="0.9132" stroke-miterlimit="10" d="M5.966,59.626v-23.49
			c0,0-0.042-0.632,0.507-0.632s11.653,0,11.653,0s0.289-0.051,0.586,0.196c0.297,0.249,6.962,6.907,6.962,6.907
			s0.33,0.444,0.352,1.084c0.021,0.643,0,16.018,0,16.018s0.125,0.73-0.592,0.773c-0.718,0.039-18.765,0-18.765,0
			S5.966,60.605,5.966,59.626z"/>
		<g>
			<path fill="#58595B" d="M18.823,37.214c0.311,1.679,0.502,3.365,0.657,5.056l0.002,0.051c0-0.041,0.022,0.058,0.068,0.096
				c0.057,0.047,0.106,0.109,0.202,0.15c0.161,0.098,0.388,0.16,0.611,0.199l0.333,0.053l0.382,0.023l0.763,0.049
				c1.018,0.084,2.033,0.166,3.049,0.315l-0.011,0.188c-1.022,0.082-2.045,0.094-3.063,0.107L21.05,43.5l-0.383-0.002
				c-0.163-0.014-0.281-0.036-0.423-0.055c-0.273-0.043-0.557-0.105-0.836-0.262C19.268,43.12,19.129,43,19.01,42.869
				c-0.115-0.157-0.221-0.292-0.229-0.594l0.001,0.052c-0.126-1.693-0.218-3.39-0.188-5.095L18.823,37.214z"/>
		</g>
	</g>
	<rect y="32" fill="none" width="32" height="32"/>
</g>
<g>
	<g>
		<path fill="#FFFFFF" stroke="#58595B" stroke-width="0.9132" stroke-miterlimit="10" d="M5.965,155.626v-23.491
			c0,0-0.041-0.631,0.508-0.631s11.652,0,11.652,0s0.289-0.051,0.586,0.197s6.961,6.906,6.961,6.906s0.332,0.444,0.354,1.084
			c0.021,0.643,0,16.019,0,16.019s0.125,0.729-0.592,0.771c-0.719,0.041-18.766,0-18.766,0S5.965,156.604,5.965,155.626z"/>
		<g>
			<path fill="#58595B" d="M18.363,133.214c0.311,1.679,0.504,3.365,0.66,5.056v0.051c0-0.043,0.023,0.057,0.068,0.095
				c0.057,0.047,0.107,0.11,0.201,0.151c0.162,0.098,0.389,0.16,0.613,0.199l0.332,0.053l0.381,0.023l0.764,0.049
				c1.018,0.084,2.033,0.166,3.047,0.315l-0.01,0.188c-1.023,0.082-2.045,0.094-3.064,0.107l-0.764-0.002l-0.383-0.002
				c-0.164-0.014-0.279-0.036-0.424-0.055c-0.271-0.043-0.555-0.105-0.834-0.262c-0.141-0.061-0.279-0.182-0.398-0.312
				c-0.115-0.157-0.223-0.292-0.229-0.593v0.051c-0.127-1.693-0.217-3.389-0.189-5.096L18.363,133.214z"/>
		</g>
		<g>
			<path fill="#1B75BB" d="M11.711,151.76l-0.271-0.714H9.134l-0.272,0.728c-0.104,0.285-0.195,0.477-0.27,0.576
				c-0.075,0.099-0.198,0.149-0.369,0.149c-0.145,0-0.271-0.054-0.383-0.159s-0.167-0.226-0.167-0.359
				c0-0.078,0.013-0.157,0.038-0.239c0.027-0.084,0.07-0.199,0.129-0.345l1.451-3.688c0.043-0.105,0.092-0.232,0.15-0.382
				c0.059-0.147,0.12-0.272,0.186-0.37c0.066-0.098,0.152-0.178,0.26-0.238s0.238-0.091,0.396-0.091c0.16,0,0.293,0.03,0.401,0.091
				c0.106,0.062,0.194,0.139,0.259,0.235c0.065,0.095,0.122,0.196,0.167,0.307c0.046,0.11,0.103,0.257,0.173,0.44l1.482,3.662
				c0.116,0.279,0.174,0.482,0.174,0.607c0,0.133-0.055,0.252-0.165,0.362c-0.108,0.108-0.241,0.165-0.396,0.165
				c-0.09,0-0.168-0.018-0.232-0.049c-0.064-0.032-0.119-0.076-0.163-0.133c-0.044-0.056-0.091-0.141-0.141-0.254
				C11.791,151.948,11.748,151.848,11.711,151.76z M9.436,150.184h1.696l-0.856-2.343L9.436,150.184z"/>
			<path fill="#1B75BB" d="M16.209,152.4h-1.735c-0.25,0-0.429-0.055-0.536-0.168c-0.107-0.111-0.161-0.291-0.161-0.535v-4.268
				c0-0.25,0.056-0.432,0.164-0.541c0.11-0.109,0.288-0.164,0.533-0.164h1.84c0.271,0,0.507,0.018,0.705,0.051
				s0.377,0.099,0.534,0.192c0.134,0.08,0.253,0.183,0.355,0.304c0.104,0.123,0.183,0.258,0.235,0.408
				c0.056,0.147,0.081,0.305,0.081,0.471c0,0.566-0.284,0.981-0.854,1.246c0.748,0.237,1.119,0.699,1.119,1.387
				c0,0.316-0.08,0.604-0.244,0.857c-0.162,0.254-0.381,0.441-0.657,0.562c-0.173,0.072-0.372,0.124-0.597,0.152
				C16.77,152.389,16.509,152.4,16.209,152.4z M14.927,147.589v1.468h1.053c0.287,0,0.509-0.027,0.665-0.082
				c0.156-0.054,0.275-0.156,0.357-0.31c0.063-0.108,0.097-0.229,0.097-0.364c0-0.287-0.103-0.477-0.306-0.57
				c-0.204-0.095-0.516-0.142-0.936-0.142H14.927z M16.123,149.881h-1.196v1.657h1.235c0.776,0,1.166-0.28,1.166-0.84
				c0-0.287-0.102-0.494-0.303-0.624C16.824,149.945,16.523,149.881,16.123,149.881z"/>
			<path fill="#1B75BB" d="M24.326,150.607c0,0.183-0.045,0.377-0.134,0.588s-0.229,0.416-0.42,0.619
				c-0.192,0.203-0.437,0.369-0.733,0.496c-0.297,0.125-0.644,0.188-1.037,0.188c-0.301,0-0.571-0.028-0.816-0.085
				c-0.245-0.059-0.468-0.146-0.668-0.266c-0.2-0.121-0.384-0.278-0.551-0.476c-0.15-0.179-0.277-0.377-0.385-0.599
				c-0.104-0.221-0.186-0.456-0.237-0.706c-0.054-0.251-0.079-0.517-0.079-0.798c0-0.457,0.064-0.866,0.199-1.229
				c0.133-0.361,0.322-0.671,0.57-0.928s0.539-0.452,0.873-0.587c0.332-0.134,0.688-0.201,1.063-0.201
				c0.459,0,0.869,0.092,1.228,0.274c0.358,0.185,0.633,0.41,0.825,0.681c0.19,0.271,0.286,0.524,0.286,0.765
				c0,0.131-0.046,0.248-0.139,0.348c-0.094,0.103-0.206,0.152-0.338,0.152c-0.146,0-0.258-0.035-0.33-0.104
				c-0.074-0.069-0.156-0.189-0.246-0.359c-0.149-0.282-0.326-0.491-0.528-0.632c-0.204-0.141-0.453-0.209-0.75-0.209
				c-0.473,0-0.849,0.18-1.128,0.538c-0.281,0.358-0.42,0.869-0.42,1.528c0,0.442,0.062,0.81,0.186,1.104
				c0.125,0.293,0.299,0.512,0.526,0.656s0.494,0.217,0.798,0.217c0.33,0,0.609-0.082,0.838-0.246
				c0.229-0.164,0.401-0.404,0.519-0.723c0.049-0.149,0.108-0.271,0.182-0.365s0.188-0.143,0.351-0.143
				c0.136,0,0.254,0.049,0.353,0.145C24.275,150.35,24.326,150.467,24.326,150.607z"/>
		</g>
	</g>
	<rect y="128" fill="none" width="32" height="32"/>
</g>
</svg>
