<?xml version="1.0" encoding="utf-8"?>
<!-- Generator: Adobe Illustrator 15.1.0, SVG Export Plug-In . SVG Version: 6.00 Build 0)  -->
<!DOCTYPE svg PUBLIC "-//W3C//DTD SVG 1.1//EN" "http://www.w3.org/Graphics/SVG/1.1/DTD/svg11.dtd">
<svg version="1.1" id="Layer_1" xmlns="http://www.w3.org/2000/svg" xmlns:xlink="http://www.w3.org/1999/xlink" x="0px" y="0px"
	 width="32px" height="256px" viewBox="0 0 32 256" enable-background="new 0 0 32 256" xml:space="preserve">
<path fill="#BBBDBF" stroke="#58595B" stroke-width="0.7252" stroke-miterlimit="10" d="M28.5,241.539v-3.078l-3.732-1.543
	l-0.354-0.947l1.479-3.674l-2.311-2.191l-3.553,1.48l-0.95-0.414l-1.542-3.674h-3.079l-1.713,3.77l-1.015,0.238l-3.433-1.4
	l-2.193,2.311l1.422,3.496l-0.295,1.006L3.5,238.461v3.078l3.732,1.541l0.355,1.008l-1.481,3.613l2.312,2.191l3.555-1.48
	l0.948,0.355l1.54,3.732h3.079l1.603-3.732l0.947-0.355l3.494,1.48l2.311-2.311l-1.479-3.615l0.296-0.77L28.5,241.539z
	 M15.887,244.627c-2.622,0-4.746-2.125-4.746-4.746s2.125-4.746,4.746-4.746c2.621,0,4.745,2.125,4.745,4.746
	S18.507,244.627,15.887,244.627z"/>
<g>
	<rect fill="none" width="32" height="32"/>
	<g>
		<path fill="#FFFFFF" stroke="#4B837A" stroke-width="0.8256" stroke-miterlimit="10" d="M4.666,10.467h11.048
			c0,0,0.397,0.042,0.707-0.438c0.308-0.481,0.972-2.099,0.972-2.099s0.155-0.292,0.527-0.301c0.373-0.008,9.16,0.125,9.16,0.125
			s0.617-0.158,0.786,1.029c0.169,1.188,0.425,2.217,0.571,5.708c0.144,3.488,0,7.535,0,7.535l-0.049,2.545
			c0,0-0.037,0.586-0.438,0.851c-0.4,0.262-24.135,0-24.135,0s-0.308,0.127-0.308-0.538c0-0.663-0.019-4.052,0-5.887
			C3.527,17.162,3.617,11.4,3.617,11.4S3.592,10.467,4.666,10.467z"/>
		<g>
			<circle fill="#5CC3BD" stroke="#4B837A" stroke-width="0.3328" stroke-miterlimit="10" cx="10.904" cy="12.295" r="5.833"/>
			<polygon fill="#FFFFFF" stroke="#4B837A" stroke-width="0.3328" stroke-miterlimit="10" points="15.257,11.288 11.898,11.288 
				11.898,7.881 9.912,7.881 9.912,11.288 6.552,11.288 6.552,13.302 9.912,13.302 9.912,16.709 11.898,16.709 11.898,13.302 
				15.257,13.302 			"/>
		</g>
	</g>
</g>
<g>
	<g>
		<g>
			<path fill="#58595B" d="M7.538,179.004H6.689v-7.367h0.849c0.438,0,0.655-0.18,0.655-0.539c0-0.166-0.054-0.299-0.162-0.396
				c-0.106-0.098-0.271-0.146-0.493-0.146H6.272c-0.11,0-0.197,0.137-0.283,0.152c-0.066-0.012-0.118-0.152-0.198-0.152H4.525
				c-0.438,0-0.655,0.18-0.655,0.539c0,0.361,0.22,0.543,0.655,0.543h0.849v7.367H4.525c-0.438,0-0.655,0.18-0.655,0.539
				c0,0.164,0.056,0.297,0.162,0.395c0.108,0.1,0.272,0.148,0.493,0.148h1.266c0.11,0,0.197-0.139,0.283-0.154
				c0.068,0.012,0.118,0.154,0.198,0.154h1.266c0.438,0,0.655-0.182,0.655-0.539C8.193,179.184,7.976,179.004,7.538,179.004z"/>
			<g>
				<path fill="#58595B" d="M13.19,179.236l-0.311-0.816h-2.648l-0.312,0.836c-0.12,0.326-0.225,0.545-0.311,0.66
					c-0.086,0.111-0.227,0.17-0.423,0.17c-0.165,0-0.312-0.061-0.439-0.184c-0.128-0.121-0.189-0.258-0.189-0.412
					c0-0.09,0.015-0.182,0.045-0.275c0.028-0.094,0.078-0.227,0.146-0.396l1.666-4.229c0.048-0.121,0.104-0.27,0.172-0.438
					c0.066-0.172,0.14-0.312,0.215-0.426c0.073-0.113,0.175-0.203,0.298-0.271s0.272-0.105,0.455-0.105
					c0.184,0,0.337,0.035,0.46,0.105c0.123,0.068,0.223,0.158,0.298,0.27c0.075,0.109,0.14,0.227,0.189,0.354
					c0.053,0.127,0.117,0.295,0.197,0.506l1.702,4.199c0.134,0.32,0.2,0.553,0.2,0.697c0,0.152-0.063,0.289-0.189,0.416
					c-0.125,0.125-0.275,0.189-0.455,0.189c-0.104,0-0.19-0.021-0.267-0.059s-0.137-0.088-0.188-0.148
					c-0.051-0.064-0.104-0.162-0.16-0.293C13.281,179.453,13.232,179.338,13.19,179.236z M10.578,177.428h1.946l-0.982-2.689
					L10.578,177.428z"/>
				<path fill="#58595B" d="M18.351,179.975h-1.991c-0.287,0-0.492-0.064-0.615-0.193s-0.185-0.334-0.185-0.615v-4.896
					c0-0.287,0.062-0.494,0.188-0.619s0.33-0.188,0.611-0.188h2.111c0.311,0,0.58,0.02,0.809,0.059
					c0.229,0.039,0.434,0.113,0.613,0.223c0.151,0.092,0.29,0.207,0.408,0.35c0.117,0.141,0.209,0.295,0.271,0.467
					c0.062,0.17,0.093,0.352,0.093,0.541c0,0.65-0.324,1.127-0.978,1.43c0.854,0.271,1.284,0.805,1.284,1.594
					c0,0.361-0.095,0.689-0.279,0.982c-0.186,0.291-0.438,0.506-0.756,0.646c-0.198,0.084-0.428,0.143-0.687,0.176
					C18.991,179.961,18.694,179.975,18.351,179.975z M16.878,174.451v1.684h1.21c0.328,0,0.584-0.029,0.764-0.092
					c0.179-0.062,0.313-0.182,0.41-0.355c0.073-0.125,0.109-0.264,0.109-0.418c0-0.328-0.115-0.547-0.351-0.654
					s-0.591-0.162-1.071-0.162L16.878,174.451L16.878,174.451z M18.253,177.082h-1.372v1.9h1.418c0.892,0,1.338-0.32,1.338-0.963
					c0-0.33-0.116-0.568-0.349-0.717C19.057,177.156,18.712,177.082,18.253,177.082z"/>
				<path fill="#58595B" d="M27.665,177.918c0,0.207-0.052,0.432-0.151,0.674c-0.104,0.24-0.266,0.479-0.482,0.711
					c-0.22,0.23-0.499,0.422-0.84,0.564c-0.341,0.146-0.738,0.219-1.191,0.219c-0.344,0-0.654-0.033-0.938-0.098
					c-0.281-0.064-0.537-0.168-0.769-0.305c-0.229-0.139-0.438-0.32-0.633-0.545c-0.172-0.205-0.316-0.434-0.438-0.688
					c-0.121-0.254-0.212-0.523-0.273-0.811c-0.061-0.287-0.091-0.594-0.091-0.916c0-0.523,0.076-0.994,0.229-1.408
					c0.152-0.416,0.37-0.77,0.655-1.064c0.284-0.295,0.617-0.52,1-0.672c0.382-0.154,0.789-0.23,1.223-0.23
					c0.526,0,0.997,0.104,1.407,0.314c0.412,0.211,0.729,0.471,0.947,0.779c0.219,0.311,0.328,0.604,0.328,0.877
					c0,0.15-0.053,0.285-0.159,0.4c-0.105,0.115-0.236,0.174-0.387,0.174c-0.169,0-0.296-0.041-0.38-0.121
					c-0.085-0.08-0.181-0.217-0.282-0.412c-0.172-0.322-0.374-0.564-0.606-0.725c-0.231-0.162-0.52-0.24-0.858-0.24
					c-0.542,0-0.976,0.205-1.295,0.617c-0.322,0.412-0.482,0.998-0.482,1.756c0,0.506,0.071,0.928,0.213,1.264
					c0.145,0.338,0.344,0.588,0.604,0.754c0.26,0.166,0.564,0.25,0.916,0.25c0.379,0,0.697-0.096,0.962-0.283
					c0.262-0.188,0.46-0.465,0.593-0.828c0.057-0.172,0.126-0.312,0.209-0.42s0.216-0.162,0.4-0.162
					c0.154,0,0.291,0.055,0.402,0.164S27.665,177.754,27.665,177.918z"/>
			</g>
		</g>
		<polyline fill="none" stroke="#58595B" stroke-linejoin="round" stroke-miterlimit="10" points="3.542,172.445 2.625,172.445 
			2.625,181.445 29.375,181.445 29.375,172.445 9.375,172.445 		"/>
	</g>
	<rect y="160" fill="none" width="32" height="32"/>
</g>
<g>
	<g>
		<path fill="#BBBDBF" stroke="#58595B" stroke-width="0.6213" stroke-miterlimit="10" d="M7.599,198.627
			c0,0-0.743-0.307-0.633-1.162c0.111-0.854,0.728-0.902,0.728-0.902l6.648,1.031v-1.031c0,0,0.079-1.139,0.822-1.061
			c0.744,0.08,2.74,0.443,2.74,0.443s0.412,0.158,0.492,0.68c0.078,0.523-0.379,1.631-0.379,1.631l6.377,1.107
			c0,0,0.774,0.316,0.633,1.203c-0.144,0.887-1.045,0.854-1.045,0.854L7.599,198.627z"/>
		<path fill="#BBBDBF" stroke="#58595B" stroke-width="0.6213" stroke-miterlimit="10" d="M24.686,206.693
			c0.154-1.352,0.252-2.346,0.244-2.619c-0.044-1.162-1.227-1.225-1.227-1.225h-5.424h-4.031H8.824c0,0-1.183,0.062-1.224,1.225
			c-0.011,0.273,0.087,1.268,0.241,2.619l-0.242,0.145c0,0,1.498,11.631,1.772,12.602s0.971,1.014,0.971,1.014s0.117,0,0.319,0.002
			c0.587,0.045,3.08,0.049,5.603,0.039c2.521,0.01,5.015,0.006,5.603-0.039c0.201-0.002,0.316-0.002,0.316-0.002
			s0.695-0.043,0.973-1.014c0.273-0.971,1.773-12.602,1.773-12.602L24.686,206.693z M12.778,217.973
			c-0.942,0.121-1.09-0.797-1.09-0.797s-1.311-10.621-1.263-10.85c0.046-0.229,0.188-0.84,0.909-0.947
			c0.721-0.104,1.092,0.715,1.092,0.715s1.212,10.961,1.205,10.994C13.624,217.119,13.721,217.854,12.778,217.973z M17.076,217.076
			c0,0-0.041,0.928-0.991,0.918c-0.951-0.01-0.941-0.75-0.951-0.781c-0.011-0.031-0.074-11.059-0.074-11.059
			s0.274-0.857,1.002-0.834c0.727,0.02,0.939,0.611,1.013,0.834C17.148,206.375,17.076,217.076,17.076,217.076z M20.84,217.176
			c0,0-0.148,0.918-1.091,0.797c-0.942-0.119-0.847-0.854-0.854-0.885c-0.006-0.033,1.207-10.994,1.207-10.994
			s0.371-0.818,1.092-0.715c0.723,0.107,0.863,0.719,0.91,0.947S20.84,217.176,20.84,217.176z"/>
	</g>
	<rect y="192" fill="none" width="32" height="32"/>
</g>
<g>
	<rect y="64" fill="none" width="32" height="32"/>
	<g>
		<path fill="#FFFFFF" stroke="#4B837A" stroke-width="0.8256" stroke-miterlimit="10" d="M4.666,74.467h11.048
			c0,0,0.397,0.042,0.707-0.438c0.308-0.481,0.972-2.099,0.972-2.099s0.155-0.292,0.527-0.301c0.373-0.008,9.16,0.125,9.16,0.125
			s0.617-0.158,0.786,1.029c0.169,1.188,0.425,2.217,0.571,5.708c0.144,3.487,0,7.534,0,7.534l-0.049,2.546
			c0,0-0.037,0.586-0.438,0.851c-0.4,0.262-24.135,0-24.135,0s-0.308,0.127-0.308-0.538c0-0.663-0.019-4.052,0-5.887
			C3.527,81.162,3.617,75.4,3.617,75.4S3.592,74.467,4.666,74.467z"/>
		<g>
			<polygon fill="#1B75BB" stroke="#404041" stroke-width="0.6304" stroke-linejoin="round" stroke-miterlimit="10" points="
				8.897,71.628 8.897,77.647 7.109,77.647 10.564,83.628 14.018,77.647 12.23,77.647 12.23,71.628 			"/>
		</g>
	</g>
</g>
<g>
	<rect y="32" fill="none" width="32" height="32"/>
	<g>
		<path fill="#FFFFFF" stroke="#4B837A" stroke-width="0.8256" stroke-miterlimit="10" d="M4.666,42.467h11.048
			c0,0,0.397,0.042,0.707-0.438c0.308-0.481,0.972-2.099,0.972-2.099s0.155-0.292,0.527-0.301c0.373-0.008,9.16,0.125,9.16,0.125
			s0.617-0.158,0.786,1.029c0.169,1.188,0.425,2.217,0.571,5.708c0.144,3.487,0,7.534,0,7.534l-0.049,2.546
			c0,0-0.037,0.586-0.438,0.851c-0.4,0.262-24.135,0-24.135,0s-0.308,0.127-0.308-0.538c0-0.663-0.019-4.052,0-5.887
			C3.527,49.162,3.617,43.4,3.617,43.4S3.592,42.467,4.666,42.467z"/>
		<g>
			<polygon fill="#00A14B" stroke="#404041" stroke-width="0.6304" stroke-linejoin="round" stroke-miterlimit="10" points="
				11.776,51 11.776,44.981 13.563,44.981 10.108,39 6.654,44.981 8.442,44.981 8.442,51 			"/>
		</g>
		<g>
			<circle fill="#00A14B" stroke="#4B837A" stroke-width="0.3328" stroke-miterlimit="10" cx="21.833" cy="51.499" r="3.632"/>
			<polygon fill="#FFFFFF" stroke="#4B837A" stroke-width="0.3328" stroke-miterlimit="10" points="24.543,50.872 22.451,50.872 
				22.451,48.751 21.215,48.751 21.215,50.872 19.123,50.872 19.123,52.126 21.215,52.126 21.215,54.247 22.451,54.247 
				22.451,52.126 24.543,52.126 			"/>
		</g>
	</g>
</g>
<g>
	<g>
		<path fill="#FFFFFF" stroke="#58595B" stroke-width="0.9132" stroke-miterlimit="10" d="M5.966,123.626v-23.49
			c0,0-0.042-0.632,0.507-0.632s11.653,0,11.653,0s0.289-0.051,0.586,0.196c0.297,0.249,6.962,6.907,6.962,6.907
			s0.33,0.444,0.352,1.084c0.021,0.643,0,16.018,0,16.018s0.125,0.73-0.592,0.773c-0.718,0.039-18.765,0-18.765,0
			S5.966,124.605,5.966,123.626z"/>
		<g>
			<path fill="#58595B" d="M18.823,101.214c0.311,1.679,0.502,3.365,0.657,5.056l0.002,0.051c0-0.041,0.022,0.058,0.068,0.096
				c0.057,0.047,0.106,0.109,0.202,0.15c0.161,0.098,0.388,0.16,0.611,0.199l0.333,0.053l0.382,0.023l0.763,0.049
				c1.018,0.084,2.033,0.166,3.049,0.315l-0.011,0.188c-1.022,0.082-2.045,0.094-3.063,0.107L21.05,107.5l-0.383-0.002
				c-0.163-0.014-0.281-0.036-0.423-0.055c-0.273-0.043-0.557-0.105-0.836-0.262c-0.141-0.062-0.279-0.182-0.398-0.312
				c-0.115-0.157-0.221-0.292-0.229-0.594l0.001,0.052c-0.126-1.693-0.218-3.39-0.188-5.095L18.823,101.214z"/>
		</g>
		<g>
			<g>
				<polygon fill="#00A14B" stroke="#404041" stroke-width="0.6304" stroke-linejoin="round" stroke-miterlimit="10" points="
					12.588,119.309 18.607,119.309 18.607,121.097 24.588,117.642 18.607,114.188 18.607,115.976 12.588,115.976 				"/>
			</g>
			<g>
				<circle fill="#00A14B" stroke="#4B837A" stroke-width="0.3328" stroke-miterlimit="10" cx="10.678" cy="117.643" r="3.632"/>
				<polygon fill="#FFFFFF" stroke="#4B837A" stroke-width="0.3328" stroke-miterlimit="10" points="13.388,117.016 11.297,117.016 
					11.297,114.895 10.061,114.895 10.061,117.016 7.969,117.016 7.969,118.27 10.061,118.27 10.061,120.391 11.297,120.391 
					11.297,118.27 13.388,118.27 				"/>
			</g>
		</g>
	</g>
	<rect y="96" fill="none" width="32" height="32"/>
</g>
<g>
	<g>
		<path fill="#FFFFFF" stroke="#58595B" stroke-width="0.9132" stroke-miterlimit="10" d="M5.966,155.627v-23.491
			c0,0-0.042-0.632,0.507-0.632s11.654,0,11.654,0s0.289-0.051,0.586,0.196c0.297,0.249,6.961,6.907,6.961,6.907
			s0.33,0.443,0.352,1.084c0.021,0.643,0,16.018,0,16.018s0.125,0.73-0.592,0.773c-0.717,0.039-18.765,0-18.765,0
			S5.966,156.605,5.966,155.627z"/>
		<g>
			<path fill="#58595B" d="M18.824,133.214c0.311,1.679,0.502,3.364,0.656,5.056l0.002,0.051c0-0.041,0.023,0.057,0.068,0.096
				c0.057,0.047,0.107,0.109,0.203,0.15c0.16,0.098,0.387,0.16,0.611,0.199l0.332,0.053l0.383,0.023l0.762,0.049
				c1.018,0.084,2.033,0.166,3.049,0.314l-0.01,0.189c-1.023,0.082-2.045,0.094-3.064,0.107l-0.766-0.002l-0.383-0.002
				c-0.164-0.014-0.281-0.037-0.424-0.055c-0.273-0.043-0.557-0.105-0.836-0.262c-0.141-0.062-0.279-0.182-0.398-0.312
				c-0.115-0.158-0.221-0.293-0.229-0.594l0.002,0.051c-0.127-1.693-0.219-3.389-0.189-5.094L18.824,133.214z"/>
		</g>
		<g>
			<g>
				<polygon fill="#1B75BB" stroke="#404041" stroke-width="0.6304" stroke-linejoin="round" stroke-miterlimit="10" points="
					12.588,151.309 18.607,151.309 18.607,153.098 24.588,149.643 18.607,146.188 18.607,147.977 12.588,147.977 				"/>
			</g>
		</g>
	</g>
	<rect y="128" fill="none" width="32" height="32"/>
</g>
</svg>
